<svg width="250" height="250" viewBox="0 0 250 250" fill="none" xmlns="http://www.w3.org/2000/svg">
<rect width="250" height="250" rx="20" fill="#9582D9"/>
<mask id="mask0_15_191" style="mask-type:luminance" maskUnits="userSpaceOnUse" x="-112" y="-112" width="475" height="475">
<path d="M125.5 362.715L-111.715 125.5L125.5 -111.715L362.715 125.5L125.5 362.715ZM120.943 163.435C123.467 165.959 127.737 165.755 130.515 162.976L162.976 130.515C165.755 127.737 165.959 123.467 163.435 120.943L130.057 87.5653C127.533 85.0406 123.263 85.2449 120.485 88.0235L88.0235 120.485C85.245 123.263 85.0406 127.532 87.5653 130.057L120.943 163.435Z" fill="white"/>
</mask>
<g mask="url(#mask0_15_191)">
<path d="M97.0297 211.197L39.8026 153.97C24.0301 138.198 23.6419 113.19 38.9323 97.9L97.9 38.9323C113.19 23.6419 138.198 24.0301 153.97 39.8026L211.197 97.0297C226.97 112.802 227.358 137.81 212.068 153.1L153.1 212.068C137.81 227.358 112.802 226.97 97.0297 211.197Z" fill="#E6E6FA"/>
</g>
</svg>
