<svg width="50" height="50" viewBox="0 0 50 50" fill="none" xmlns="http://www.w3.org/2000/svg">
<rect width="50" height="50" rx="8" fill="#9582D9"/>
<g clip-path="url(#clip0_4010_1209)">
<mask id="mask0_4010_1209" style="mask-type:luminance" maskUnits="userSpaceOnUse" x="-21" y="-21" width="91" height="91">
<path d="M24.4889 69.6461L-20.8313 24.3259L24.4889 -20.9942L69.8091 24.3259L24.4889 69.6461ZM23.6182 31.5734C24.1006 32.0557 24.9162 32.0167 25.4471 31.4859L31.6488 25.2841C32.1796 24.7533 32.2187 23.9376 31.7363 23.4553L25.3595 17.0785C24.8772 16.5961 24.0615 16.6352 23.5307 17.166L17.329 23.3677C16.7981 23.8986 16.7591 24.7143 17.2414 25.1966L23.6182 31.5734Z" fill="white"/>
</mask>
<g mask="url(#mask0_4010_1209)">
<path d="M19.0496 40.6985L8.11635 29.7652C5.10299 26.7519 5.02883 21.9742 7.95007 19.0529L19.2159 7.78712C22.1371 4.86588 26.9148 4.94003 29.9282 7.95339L40.8614 18.8867C43.8748 21.9 43.949 26.6777 41.0277 29.5989L29.7619 40.8648C26.8406 43.786 22.063 43.7118 19.0496 40.6985Z" fill="#E6E6FA"/>
</g>
</g>
<defs>
<clipPath id="clip0_4010_1209">
<rect x="3.37781" y="3.21481" width="42.2222" height="42.2222" rx="8" fill="white"/>
</clipPath>
</defs>
</svg>
