<svg width="212" height="50" viewBox="0 0 212 50" fill="none" xmlns="http://www.w3.org/2000/svg">
<path d="M73.12 39.32C71.0133 39.32 69.1333 38.8933 67.48 38.04C65.8533 37.1867 64.5733 35.96 63.64 34.36C62.7067 32.7333 62.24 30.7867 62.24 28.52C62.24 26.2 62.7067 24.2267 63.64 22.6C64.6 20.9467 65.8933 19.6933 67.52 18.84C69.1467 17.96 70.9867 17.52 73.04 17.52C75.12 17.52 76.96 17.9733 78.56 18.88C80.16 19.76 81.4267 21.0267 82.36 22.68C83.2933 24.3067 83.76 26.28 83.76 28.6C83.76 30.8667 83.3067 32.8 82.4 34.4C81.52 36 80.28 37.2267 78.68 38.08C77.08 38.9067 75.2267 39.32 73.12 39.32ZM73 33.44C74.12 33.44 75.0133 33.2 75.68 32.72C76.3467 32.24 76.8133 31.6267 77.08 30.88C77.3733 30.1333 77.52 29.36 77.52 28.56C77.52 27.76 77.3733 26.96 77.08 26.16C76.8133 25.36 76.3467 24.7067 75.68 24.2C75.04 23.6667 74.1467 23.4 73 23.4C71.88 23.4 70.9867 23.6667 70.32 24.2C69.6533 24.7067 69.1733 25.36 68.88 26.16C68.5867 26.9333 68.44 27.7333 68.44 28.56C68.44 29.36 68.5867 30.1467 68.88 30.92C69.2 31.6667 69.68 32.28 70.32 32.76C70.9867 33.2133 71.88 33.44 73 33.44ZM87.2644 39V17.92H93.1444L93.5044 20.08C94.1177 19.3867 94.7977 18.8533 95.5444 18.48C96.3177 18.1067 97.0777 17.8533 97.8244 17.72C98.5977 17.5867 99.2644 17.52 99.8244 17.52C101.824 17.52 103.384 17.9733 104.504 18.88C105.651 19.76 106.464 20.9467 106.944 22.44C107.424 23.9333 107.664 25.5733 107.664 27.36V39H101.344V28.04C101.344 27.48 101.291 26.9333 101.184 26.4C101.078 25.84 100.891 25.3333 100.624 24.88C100.384 24.4 100.038 24.0267 99.5844 23.76C99.131 23.4667 98.5444 23.32 97.8244 23.32C96.891 23.32 96.1044 23.5467 95.4644 24C94.8244 24.4533 94.3577 25.0667 94.0644 25.84C93.771 26.5867 93.6244 27.4267 93.6244 28.36V39H87.2644ZM116.439 39L109.759 17.92H116.679L120.199 31.56L123.999 17.92H130.879L134.679 31.56L138.159 17.92H144.919L138.239 39H131.199L127.319 25.68L123.479 39H116.439ZM153.799 39.32C152.813 39.32 151.879 39.1867 150.999 38.92C150.119 38.6533 149.333 38.2533 148.639 37.72C147.946 37.1867 147.399 36.52 146.999 35.72C146.599 34.92 146.399 33.9867 146.399 32.92C146.399 31.4 146.706 30.2 147.319 29.32C147.959 28.4133 148.813 27.7467 149.879 27.32C150.973 26.8667 152.213 26.5733 153.599 26.44C154.986 26.3067 156.426 26.24 157.919 26.24H159.919C159.919 25.5733 159.786 25 159.519 24.52C159.279 24.0133 158.906 23.6133 158.399 23.32C157.893 23.0267 157.266 22.88 156.519 22.88C155.986 22.88 155.479 22.96 154.999 23.12C154.546 23.2533 154.159 23.4533 153.839 23.72C153.546 23.96 153.346 24.2667 153.239 24.64H146.879C147.066 23.3867 147.453 22.32 148.039 21.44C148.653 20.5333 149.399 19.8 150.279 19.24C151.186 18.68 152.199 18.2667 153.319 18C154.439 17.7067 155.586 17.56 156.759 17.56C159.853 17.56 162.159 18.4267 163.679 20.16C165.199 21.8933 165.959 24.4 165.959 27.68V39H160.159L160.119 36.24C159.453 37.2533 158.693 37.9733 157.839 38.4C156.986 38.8267 156.186 39.08 155.439 39.16C154.693 39.2667 154.146 39.32 153.799 39.32ZM155.399 34.4C156.199 34.4 156.946 34.2267 157.639 33.88C158.333 33.5067 158.893 33.04 159.319 32.48C159.773 31.8933 159.999 31.2667 159.999 30.6V30.28H156.079C155.653 30.28 155.226 30.3067 154.799 30.36C154.399 30.4133 154.039 30.52 153.719 30.68C153.399 30.8133 153.146 31.0133 152.959 31.28C152.773 31.5467 152.679 31.8933 152.679 32.32C152.679 32.7733 152.799 33.16 153.039 33.48C153.279 33.7733 153.599 34 153.999 34.16C154.426 34.32 154.893 34.4 155.399 34.4ZM170.25 39V17.92H175.85L176.29 20.16C176.823 19.3867 177.41 18.8133 178.05 18.44C178.717 18.0667 179.383 17.8267 180.05 17.72C180.743 17.5867 181.41 17.52 182.05 17.52C182.45 17.52 182.81 17.5333 183.13 17.56C183.477 17.56 183.703 17.5733 183.81 17.6V23.68H182.49C181.37 23.68 180.357 23.8533 179.45 24.2C178.57 24.5467 177.877 25.12 177.37 25.92C176.863 26.72 176.61 27.84 176.61 29.28V39H170.25ZM194.836 39.32C192.676 39.32 190.889 38.8267 189.476 37.84C188.063 36.8267 187.009 35.5067 186.316 33.88C185.623 32.2267 185.276 30.4133 185.276 28.44C185.276 26.3067 185.663 24.4267 186.436 22.8C187.209 21.1467 188.343 19.8533 189.836 18.92C191.329 17.9867 193.169 17.52 195.356 17.52C196.103 17.52 196.809 17.6 197.476 17.76C198.169 17.92 198.809 18.16 199.396 18.48C200.009 18.7733 200.516 19.16 200.916 19.64V10.68H207.276V39H201.076V36.88C200.569 37.44 199.983 37.8933 199.316 38.24C198.676 38.5867 197.983 38.8533 197.236 39.04C196.489 39.2267 195.689 39.32 194.836 39.32ZM196.196 33.56C197.316 33.56 198.223 33.32 198.916 32.84C199.609 32.3333 200.116 31.6933 200.436 30.92C200.783 30.12 200.956 29.2933 200.956 28.44C200.956 27.5333 200.783 26.6933 200.436 25.92C200.116 25.1467 199.609 24.52 198.916 24.04C198.223 23.56 197.316 23.32 196.196 23.32C195.049 23.32 194.129 23.5867 193.436 24.12C192.769 24.6267 192.289 25.28 191.996 26.08C191.729 26.88 191.596 27.7067 191.596 28.56C191.596 29.2 191.676 29.8267 191.836 30.44C191.996 31.0267 192.249 31.56 192.596 32.04C192.969 32.4933 193.449 32.8667 194.036 33.16C194.623 33.4267 195.343 33.56 196.196 33.56Z" fill="#9582D9"/>
<rect width="50" height="50" rx="8" fill="#9582D9"/>
<g clip-path="url(#clip0_4018_328)">
<mask id="mask0_4018_328" style="mask-type:luminance" maskUnits="userSpaceOnUse" x="-21" y="-21" width="91" height="91">
<path d="M24.4888 69.6461L-20.8314 24.3259L24.4888 -20.9943L69.8089 24.3259L24.4888 69.6461ZM23.6181 31.5734C24.1005 32.0557 24.9161 32.0167 25.447 31.4858L31.6487 25.2841C32.1795 24.7533 32.2186 23.9376 31.7362 23.4553L25.3594 17.0785C24.8771 16.5961 24.0614 16.6352 23.5306 17.166L17.3289 23.3677C16.798 23.8986 16.759 24.7142 17.2413 25.1966L23.6181 31.5734Z" fill="white"/>
</mask>
<g mask="url(#mask0_4018_328)">
<path d="M19.0495 40.6985L8.11622 29.7652C5.10287 26.7518 5.02871 21.9742 7.94995 19.0529L19.2158 7.7871C22.137 4.86586 26.9147 4.94002 29.928 7.95338L40.8613 18.8866C43.8747 21.9 43.9488 26.6777 41.0276 29.5989L29.7618 40.8647C26.8405 43.786 22.0629 43.7118 19.0495 40.6985Z" fill="#E6E6FA"/>
</g>
</g>
<defs>
<clipPath id="clip0_4018_328">
<rect x="3.37769" y="3.21481" width="42.2222" height="42.2222" rx="8" fill="white"/>
</clipPath>
</defs>
</svg>
